<svg viewBox="-109 0 512 512" xmlns="http://www.w3.org/2000/svg">
  <path d="M106.934 195.414c14.289 6.5 29.894 9.387 45.554 8.524v65.847c0 11 9 20 20 20s20-9 20-20v-51.89c9.239 5.867 20.203 9.265 31.961 9.265 8.856 0 17.262-1.93 24.82-5.39 20.594-9.418 34.899-30.204 34.899-54.329 0-26.117-16.77-48.316-40.125-56.425.05-1.317.086-2.641.086-3.973 0-53.594-43.45-97.043-97.043-97.043s-97.043 43.45-97.043 97.043c0 6.973.742 13.77 2.137 20.324-23.91 3.848-42.176 24.578-42.176 49.574 0 22.805 15.2 42.059 36.02 48.184a50.227 50.227 0 0014.199 2.035c21.21 0 39.351-13.152 46.71-31.746zm0 0" fill="#ff6977" fill-rule="evenodd"/>
  <path d="M152.488 203.938c-15.664.863-31.265-2.02-45.554-8.524-7.36 18.594-25.5 31.746-46.711 31.746-4.93 0-9.7-.71-14.2-2.039l37.762 117.863 47.168 147.23c2.863 8.923 12.418 13.837 21.344 10.973 5.46-1.753 9.422-6.015 11.012-11.105l47.129-147.098 38.835-121.21a59.543 59.543 0 01-24.824 5.386c-11.758 0-22.719-3.398-31.96-9.27v51.891c0 11-9 20-20 20s-20-9-20-20zm0 0" fill="#ffd4bd" fill-rule="evenodd"/>
  <path d="M294.168 167.441c0-27.214-15.832-51.734-40.074-63.117C252.652 46.551 205.204 0 147.086 0c-12.992 0-25.707 2.313-37.785 6.871-5.168 1.95-7.774 7.719-5.824 12.887 1.949 5.168 7.714 7.773 12.886 5.824C126.176 21.879 136.516 20 147.086 20c47.996 0 87.043 39.047 87.043 87.043a86.02 86.02 0 01-.078 3.57 10.004 10.004 0 006.71 9.848c19.981 6.937 33.407 25.816 33.407 46.98 0 27.414-22.305 49.72-49.719 49.72-9.46 0-18.66-2.665-26.601-7.708a10.002 10.002 0 00-15.364 8.442v51.89c0 5.512-4.484 10-10 10-5.511 0-10-4.488-10-10v-65.844c0-2.75-1.129-5.375-3.125-7.265a10.031 10.031 0 00-7.421-2.719c-14.043.77-28.18-1.871-40.864-7.644a10.013 10.013 0 00-7.883-.172 10.014 10.014 0 00-5.558 5.593c-3.442 8.696-9.598 15.657-17.285 20.082-.403.188-.79.403-1.157.637-5.695 3.035-12.171 4.707-18.972 4.707-22.176 0-40.215-18.039-40.215-40.219 0-19.851 14.2-36.55 33.766-39.699a10.003 10.003 0 008.191-11.957 87.659 87.659 0 01-1.918-18.238c0-10.57 1.875-20.906 5.578-30.719 1.95-5.168-.66-10.937-5.828-12.887-5.168-1.949-10.938.66-12.887 5.829-4.554 12.078-6.863 24.789-6.863 37.777 0 4.293.258 8.594.77 12.86C16.664 128.026 0 150.636 0 176.94c0 25.364 15.77 47.098 38.008 55.957l83.422 260.375c3.668 11.43 14.289 18.73 25.695 18.73a26.92 26.92 0 008.227-1.292c8.34-2.68 14.882-9.273 17.476-17.574l11.36-35.457a9.995 9.995 0 00-6.473-12.575c-5.258-1.69-10.89 1.211-12.574 6.473l-11.38 35.524a6.995 6.995 0 01-4.523 4.566c-3.664 1.176-7.593-.848-8.765-4.5L60.375 237.16a60.754 60.754 0 0018.031-2.773l7.426 23.18c1.36 4.246 5.29 6.953 9.52 6.953 1.011 0 2.039-.157 3.054-.48 5.258-1.685 8.157-7.317 6.473-12.575l-8.438-26.328a59.865 59.865 0 0015.332-17.02 107.732 107.732 0 0030.711 5.871v55.797c0 16.543 13.457 30 30 30 16.54 0 30-13.457 30-30v-36.16a69.652 69.652 0 0021.961 3.54c3.262 0 6.465-.243 9.606-.68l-44.5 138.906c-1.688 5.257 1.21 10.886 6.472 12.574a9.98 9.98 0 003.051.476c4.23 0 8.16-2.707 9.524-6.949l48.918-152.687c21.808-11.801 36.652-34.88 36.652-61.364zm0 0" fill="#000000"/>
  <path d="M208.988 82.836c0-5.523-4.476-10-10-10-5.523 0-10 4.477-10 10v.008c0 5.523 4.477 9.996 10 9.996 5.524 0 10-4.48 10-10.004zm0 0M182.488 148.336c0-5.524-4.476-10-10-10-5.523 0-10 4.476-10 10v.008c0 5.523 4.477 9.996 10 9.996 5.524 0 10-4.48 10-10.004zm0 0M142.988 96.836c0-5.523-4.476-10-10-10-5.523 0-10 4.477-10 10v.008c0 5.523 4.477 9.996 10 9.996 5.524 0 10-4.48 10-10.004zm0 0M78.457 48.43a9.984 9.984 0 007.402-3.274l.008-.008c3.715-4.086 3.41-10.406-.676-14.12-4.09-3.715-10.414-3.415-14.129.675-3.714 4.086-3.414 10.41.672 14.125a9.966 9.966 0 006.723 2.602zm0 0M190.813 407.34c-5.079-2.18-10.958.18-13.133 5.254-2.176 5.078.175 10.957 5.254 13.133a10 10 0 0013.129-5.254l.003-.008c2.176-5.074-.18-10.95-5.254-13.125zm0 0M104.816 282.984c-5.312 1.52-8.386 7.055-6.87 12.364l.003.007c1.254 4.391 5.258 7.25 9.606 7.25.91 0 1.836-.125 2.754-.386 5.312-1.516 8.386-7.055 6.867-12.367-1.516-5.309-7.051-8.383-12.36-6.868zm0 0" fill="#000000"/>
</svg>
