<svg viewBox="0 0 512 512" xmlns="http://www.w3.org/2000/svg">
  <path d="M350.132 36.145H63.693v386.024c0 29.65-24.037 53.687-53.687 53.687H448.314c29.65 0 53.687-24.036 53.687-53.687V36.145z" fill="#f9f5f3"/>
  <path d="M435.883 168.894v-83.16H130.359v83.16H356.3c-.001-.091-.007-.181-.007-.272z" fill="#9da5be"/>
  <path d="M299.021 230.401h136.862v94.728H299.021z" fill="#ffc135"/>
  <path d="M130.364 374.541v47.623c0 29.66-24.041 53.687-53.687 53.687h305.519c29.646 0 53.687-24.027 53.687-53.687v-47.623z" fill="#a0e4a5"/>
  <path d="M63.687 119.359v302.806c0 29.66-24.027 53.687-53.687 53.687V119.359z" fill="#bdd3dd"/>
  <path d="M502 26.145H63.693c-5.523 0-10 4.478-10 10v73.214H10c-5.523 0-10 4.478-10 10v356.493a9.992 9.992 0 004.415 8.296 9.955 9.955 0 005.591 1.708h438.307c35.117 0 63.687-28.569 63.687-63.687V36.145c0-5.523-4.477-10-10-10zM53.687 129.358v292.806c0 15.749-8.792 30.548-22.531 38.21A43.225 43.225 0 0120 464.689v-335.33h33.687zm69.291 336.494c10.774-11.412 17.387-26.791 17.387-43.688v-37.623h285.519v37.623c0 24.09-19.598 43.688-43.687 43.688zM492 422.169c0 24.089-19.598 43.687-43.687 43.687h-19.845c10.783-11.414 17.415-26.788 17.415-43.691v-47.623c0-5.522-4.477-10-10-10H130.364c-5.523 0-10 4.478-10 10v47.623c0 24.09-19.598 43.688-43.687 43.688-.026 0-.051.004-.077.004H56.307c11.079-11.727 17.387-27.554 17.387-43.687V46.145H492z" fill="#000000"/>
  <path d="M130.359 178.894H356.3c6.438 0 11.082-6.137 9.779-12.337-1.141-5.428-6.714-8.949-12.11-7.663h-213.61v-63.16h285.524v73.16c0 5.522 4.477 10 10 10s10-4.478 10-10v-83.16c0-5.522-4.477-10-10-10H130.359c-5.523 0-10 4.478-10 10v83.16c0 5.522 4.477 10 10 10zM130.359 240.401h115.582c5.523 0 10-4.478 10-10s-4.477-10-10-10H130.359c-5.523 0-10 4.478-10 10s4.477 10 10 10zM130.359 335.13h115.582c5.523 0 10-4.478 10-10s-4.477-10-10-10H130.359c-5.523 0-10 4.478-10 10s4.477 10 10 10zM130.359 287.766h115.582c5.523 0 10-4.478 10-10s-4.477-10-10-10H130.359c-5.523 0-10 4.478-10 10s4.477 10 10 10zM435.883 220.401H299.021c-5.523 0-10 4.478-10 10v94.729c0 5.522 4.477 10 10 10h136.862c5.523 0 10-4.478 10-10v-94.729c0-5.522-4.477-10-10-10zm-10 94.729H309.021v-74.729h116.862z" fill="#000000"/>
  <path d="M392.94 178.13c8.382 3.492 16.803-5.642 12.751-13.728-4.113-8.208-16.642-6.65-18.677 2.298-1.062 4.673 1.483 9.609 5.926 11.43z" fill="#000000"/>
</svg>
