<svg xmlns="http://www.w3.org/2000/svg" viewBox="0 0 512 512">
  <path fill="#fff" d="M32 191.549h448v310.44H32z"/>
  <path d="M256 154.831v34.936c0 21.258-17.233 38.491-38.491 38.491h-5.018c-21.258 0-38.491-17.233-38.491-38.491v-34.936h82z" fill="#fea3a2"/>
  <path d="M338 154.831v34.936c0 21.258-17.233 38.491-38.491 38.491h-5.018c-21.258 0-38.491-17.233-38.491-38.491v-34.936h82z" fill="#c6ef9a"/>
  <path d="M420 154.831v34.936c0 21.258-17.233 38.491-38.491 38.491h-5.018c-21.258 0-38.491-17.233-38.491-38.491v-34.936h82z" fill="#fea3a2"/>
  <path d="M502 154.831v34.936c0 21.258-17.233 38.491-38.491 38.491h-5.018c-21.258 0-38.491-17.233-38.491-38.491v-34.936h82z" fill="#c6ef9a"/>
  <path d="M92 154.831v34.936c0 21.258-17.233 38.491-38.491 38.491h-5.018C27.233 228.259 10 211.026 10 189.768v-34.936l82-.001z" fill="#fea3a2"/>
  <path d="M174 154.831v34.936c0 21.258-17.233 38.491-38.491 38.491h-5.018C109.233 228.259 92 211.026 92 189.768v-34.936l82-.001z" fill="#c6ef9a"/>
  <path d="M10 154.052V83.99c0-11.046 8.954-20 20-20h452c11.046 0 20 8.954 20 20v70.063H10v-.001z" fill="#c7daff"/>
  <g fill="#dde9ff">
    <path d="M86 285.989h156v216H86zM480 429.99H302v-144h178"/>
  </g>
  <path d="M299.354 18.636c-11.528-11.528-30.22-11.528-41.748 0l-44.959 44.959c-11.528 11.528-11.528 30.22 0 41.748 11.528 11.528 30.22 11.528 41.748 0l44.959-44.959c11.528-11.528 11.528-30.22 0-41.748z" fill="#fff"/>
  <path d="M235.126 41.116l41.748 41.748 22.48-22.48c11.528-11.528 11.528-30.22 0-41.748s-30.22-11.528-41.748 0l-22.48 22.48z" fill="#fe7c7a"/>
  <path d="M512 83.99c0-16.542-13.458-30-30-30h-83.5c-5.523 0-10 4.477-10 10s4.477 10 10 10H482c5.514 0 10 4.486 10 10v60.063H20V83.99c0-5.514 4.486-10 10-10h124.584c5.523 0 10-4.477 10-10s-4.477-10-10-10H30c-16.542 0-30 13.458-30 30v70.063c0 .132.015.259.02.39-.005.13-.02.258-.02.39v34.937c0 17.058 8.862 32.076 22.215 40.722a10.01 10.01 0 00-.215 2.062v259.438H10c-5.523 0-10 4.477-10 10s4.477 10 10 10h492c5.523 0 10-4.477 10-10s-4.477-10-10-10h-12v-259.44c0-.707-.076-1.396-.215-2.062C503.138 221.844 512 206.826 512 189.768v-34.937c0-.132-.015-.259-.02-.39.005-.13.02-.258.02-.39V83.99zm-410 80.062h62v25.716c0 15.71-12.781 28.491-28.491 28.491h-5.019c-15.71 0-28.491-12.781-28.491-28.491l.001-25.716zm82 0h62v25.716c0 15.71-12.781 28.491-28.491 28.491h-5.019c-15.71 0-28.491-12.781-28.491-28.491l.001-25.716zm82 0h62v25.716c0 15.71-12.781 28.491-28.491 28.491h-5.019c-15.71 0-28.491-12.781-28.491-28.491v-25.716H266zm82 0h62v25.716c0 15.71-12.781 28.491-28.491 28.491h-5.019c-15.71 0-28.491-12.781-28.491-28.491v-25.716H348zm-328 0h62v25.716c0 15.71-12.781 28.491-28.491 28.491H48.49c-15.709 0-28.49-12.781-28.49-28.491v-25.716zM96 491.99v-196h136v196H96zm374-72H312v-124h158v124zm0-144H302c-5.523 0-10 4.477-10 10v144c0 5.523 4.477 10 10 10h168v52H252v-206c0-5.523-4.477-10-10-10H86c-5.523 0-10 4.477-10 10v206H42V237.812c2.125.286 4.289.447 6.491.447h5.019c15.67 0 29.62-7.478 38.491-19.046 8.87 11.568 22.82 19.046 38.491 19.046h5.019c15.67 0 29.62-7.478 38.491-19.046 8.87 11.568 22.82 19.046 38.491 19.046h5.019c15.67 0 29.62-7.478 38.491-19.046 8.87 11.568 22.82 19.046 38.491 19.046h5.019c15.67 0 29.62-7.478 38.491-19.046 8.87 11.568 22.82 19.046 38.491 19.046h5.019c15.67 0 29.62-7.478 38.491-19.046 8.87 11.568 22.82 19.046 38.491 19.046h5.019c2.202 0 4.366-.161 6.491-.447v38.178H470zm-6.491-57.731h-5.019c-15.71 0-28.491-12.781-28.491-28.491v-25.716h62v25.716c.001 15.71-12.78 28.491-28.49 28.491z" fill="#000"/>
  <path d="M200 383.99c-2.63 0-5.21 1.07-7.07 2.93s-2.93 4.44-2.93 7.07 1.07 5.21 2.93 7.07c1.86 1.86 4.44 2.93 7.07 2.93s5.21-1.07 7.07-2.93 2.93-4.44 2.93-7.07-1.07-5.21-2.93-7.07a10.076 10.076 0 00-7.07-2.93zM233.521 123.971c10.12 0 20.24-3.853 27.945-11.557l22.472-22.473.008-.007.007-.008 22.472-22.472C313.889 59.991 318 50.066 318 39.51s-4.111-20.48-11.575-27.945c-15.409-15.408-40.481-15.409-55.89 0l-44.959 44.959C198.111 63.988 194 73.913 194 84.469s4.111 20.481 11.575 27.945c7.705 7.705 17.825 11.557 27.946 11.557zm31.156-98.264c3.805-3.806 8.804-5.708 13.803-5.708 4.999 0 9.997 1.903 13.802 5.708C295.97 29.394 298 34.296 298 39.51s-2.03 10.116-5.718 13.803l-15.408 15.408-27.605-27.605 15.408-15.409zm-44.959 44.96l15.408-15.408 27.605 27.605-15.408 15.408c-7.61 7.612-19.994 7.611-27.605 0C216.03 94.586 214 89.683 214 84.469s2.03-10.115 5.718-13.802zM354.319 367.915h26.574v26.574c0 5.523 4.477 10 10 10s10-4.477 10-10v-26.574h26.574c5.523 0 10-4.477 10-10s-4.477-10-10-10h-26.574v-26.574c0-5.523-4.477-10-10-10s-10 4.477-10 10v26.574h-26.574c-5.523 0-10 4.477-10 10s4.477 10 10 10zM134 323.323c-5.523 0-10 4.477-10 10v83.333c0 5.523 4.477 10 10 10s10-4.477 10-10v-83.333c0-5.523-4.477-10-10-10zM134 444.66c-2.63 0-5.21 1.06-7.07 2.92a10.1 10.1 0 00-2.93 7.08c0 2.63 1.07 5.21 2.93 7.07 1.86 1.86 4.44 2.93 7.07 2.93s5.21-1.07 7.07-2.93c1.86-1.87 2.93-4.44 2.93-7.07a10.1 10.1 0 00-2.93-7.08 10.066 10.066 0 00-7.07-2.92z" fill="#000"/>
</svg>
