<svg viewBox="-30 0 512 512" xmlns="http://www.w3.org/2000/svg">
  <path d="M410 10h-40v492h40c11.05 0 20-8.95 20-20V30c0-11.05-8.95-20-20-20zm0 0" fill="#495b73"/>
  <path d="M50 30c0-11.05 8.95-20 20-20h300c11.05 0 20 8.95 20 20v452c0 11.05-8.95 20-20 20H70c-11.05 0-20-8.95-20-20V30zm0 0" fill="#ff6a59"/>
  <path d="M338.988 278.43c7.82 7.808 7.82 20.468 0 28.28l-16.488 16.5a40.01 40.01 0 01-43.52 8.7 247.982 247.982 0 01-134.89-134.89 40.01 40.01 0 018.7-43.52l16.5-16.488c7.812-7.82 20.472-7.82 28.28 0l19.551 19.539c10.508 10.508 6.277 28.41-7.82 33.11l-11.73 3.91c8.57 42.82 42.038 76.288 84.859 84.859l3.91-11.73c4.7-14.098 22.601-18.329 33.11-7.821zm0 0" fill="#b8eaff"/>
  <path d="M150 386c-5.52 0-10 4.48-10 10s4.48 10 10 10 10-4.48 10-10-4.48-10-10-10zm0 0" fill="#000"/>
  <path d="M70 512h340c16.543 0 30-13.457 30-30V30c0-16.543-13.457-30-30-30H70C53.457 0 40 13.457 40 30v36H30C13.457 66 0 79.457 0 96s13.457 30 30 30h10v40H30c-16.543 0-30 13.457-30 30s13.457 30 30 30h10v60H30c-16.543 0-30 13.457-30 30s13.457 30 30 30h10v40H30c-16.543 0-30 13.457-30 30s13.457 30 30 30h10v36c0 16.543 13.457 30 30 30zM420 30v452c0 5.516-4.484 10-10 10h-11.719A29.86 29.86 0 00400 482V30c0-3.508-.61-6.871-1.719-10H410c5.516 0 10 4.484 10 10zM30 106c-5.516 0-10-4.484-10-10s4.484-10 10-10h10v20zm0 100c-5.516 0-10-4.484-10-10s4.484-10 10-10h10v20zm0 120c-5.516 0-10-4.484-10-10s4.484-10 10-10h10v20zm60-20c-5.523 0-10 4.477-10 10 0 5.516-4.484 10-10 10H60V226h10c16.543 0 30-13.457 30-30 0-5.523-4.477-10-10-10s-10 4.477-10 10c0 5.516-4.484 10-10 10H60v-80h10c16.543 0 30-13.457 30-30 0-5.523-4.477-10-10-10s-10 4.477-10 10c0 5.516-4.484 10-10 10H60V30c0-5.516 4.484-10 10-10h300c5.516 0 10 4.484 10 10v452c0 5.516-4.484 10-10 10H70c-5.516 0-10-4.484-10-10v-36h10c16.543 0 30-13.457 30-30 0-5.523-4.477-10-10-10s-10 4.477-10 10c0 5.516-4.484 10-10 10H60v-80h10c16.543 0 30-13.457 30-30 0-5.523-4.477-10-10-10zM30 426c-5.516 0-10-4.484-10-10s4.484-10 10-10h10v20zm0 0" fill="#000"/>
  <path d="M190.977 285.023c24.207 24.211 52.535 43.098 84.195 56.133 18.656 7.684 40.023 3.496 54.402-10.879l16.48-16.492c11.731-11.715 11.75-30.7.008-42.426l-19.539-19.55h-.003c-15.75-15.75-42.61-9.446-49.668 11.726l-.993 2.985a97.884 97.884 0 01-66.382-66.38l2.984-.995c21.176-7.06 27.476-33.918 11.726-49.668l-19.542-19.536c-11.739-11.754-30.723-11.722-42.426-.007l-16.5 16.492c-14.32 14.32-18.59 35.676-10.875 54.398 13.035 31.66 31.922 59.988 56.133 84.2zm-31.118-124.449l16.504-16.5a9.978 9.978 0 0114.137.008l19.547 19.54c5.254 5.253 3.137 14.202-3.91 16.554l-11.73 3.91a9.997 9.997 0 00-6.645 11.445c9.394 46.926 45.781 83.313 92.707 92.703a9.997 9.997 0 0011.445-6.644l3.91-11.727c2.352-7.05 11.297-9.168 16.555-3.914l19.543 19.555a9.974 9.974 0 01-.004 14.137l-16.488 16.5a29.925 29.925 0 01-32.64 6.523c-58.274-23.996-105.458-71.18-129.454-129.453a29.918 29.918 0 016.523-32.637zm0 0M330 386H190c-5.523 0-10 4.477-10 10s4.477 10 10 10h140c5.523 0 10-4.477 10-10s-4.477-10-10-10zm0 0" fill="#000"/>
</svg>
