<svg xmlns="http://www.w3.org/2000/svg" viewBox="0 -48 512 512">
  <g fill="#ffc766">
    <path d="M443.275 263.512c.113.023.227.04.34.063-.113-.024-.228-.041-.34-.063zM449.64 265.11zM446.63 264.27c.348.088.692.186 1.038.279-.346-.092-.69-.191-1.038-.279zM459.296 268.835c.402.192.798.395 1.196.594-.398-.199-.793-.403-1.196-.594zM467.178 273.253zM464.624 271.672c.438.258.877.515 1.309.782-.432-.267-.87-.524-1.309-.782zM461.05 358.948h18.096c8.333 0 15.622 4.461 19.615 11.125v-38.796a69.022 69.022 0 00-3.43-21.508h-44.014c-16.743 0-30.317-13.573-30.317-30.317v-17.291h-59.313a14.879 14.879 0 01-13.973-9.767l-29.536-80.727a36.453 36.453 0 00-34.233-23.927H119.492c-27.857 0-52.903 16.975-63.222 42.851l-18.473 46.32a141.539 141.539 0 00-10.05 50.773h14.195c14.163 0 25.644 11.481 25.644 25.644v.54c0 14.163-11.481 25.644-25.644 25.644H27.727v28.063c.46-.033.92-.07 1.389-.07h27.673v35.172h31.448c.72-27.261 23.029-49.143 50.463-49.143 27.435 0 49.743 21.882 50.464 49.143h134.051c.72-27.261 23.029-49.143 50.464-49.143s49.743 21.882 50.463 49.143h29.271v-36.092a7.636 7.636 0 017.637-7.637zM301.4 276.209H84.107c-9.407 0-16.052-9.214-13.082-18.14l18.627-55.978a36.126 36.126 0 0134.277-24.719h143.362a23.086 23.086 0 0121.911 15.813l22.719 68.446c2.381 7.176-2.961 14.578-10.521 14.578zM461.994 270.198zM455.845 267.315c.32.131.642.257.96.393-.318-.136-.64-.262-.96-.393zM452.643 266.095c.381.135.763.266 1.141.407-.378-.14-.76-.272-1.141-.407zM475.193 279.315zM482.368 286.609zM484.152 288.806zM472.979 277.448zM485.651 290.796zM470.647 275.642c.48.355.949.723 1.419 1.089-.47-.366-.939-.735-1.419-1.089zM429.646 262.161z"/>
    <path d="M432.903 262.244c.341.016.679.041 1.019.062-.34-.021-.678-.047-1.019-.062zM436.153 262.476zM481.983 286.164zM439.457 262.867c.346.049.694.094 1.038.149-.344-.055-.692-.1-1.038-.149zM491.251 299.957zM489.915 297.455z"/>
  </g>
  <path d="M479.146 358.948H461.05a7.638 7.638 0 00-7.638 7.638v43.391a7.638 7.638 0 007.638 7.638h18.096c12.622 0 22.854-10.232 22.854-22.854v-12.957c0-4.289-1.184-8.301-3.239-11.73-3.993-6.665-11.282-11.126-19.615-11.126z" fill="#5dade0"/>
  <g fill="#bdc2c6">
    <path d="M138.7 353.534c-27.435 0-49.743 21.882-50.463 49.143-.012.451-.034.9-.034 1.354 0 27.889 22.609 50.498 50.498 50.498s50.498-22.609 50.498-50.498c0-.454-.022-.903-.034-1.354-.722-27.261-23.03-49.143-50.465-49.143zM373.678 353.534c-27.435 0-49.743 21.882-50.464 49.143-.012.451-.034.9-.034 1.354 0 27.889 22.609 50.498 50.498 50.498s50.498-22.609 50.498-50.498c0-.454-.022-.903-.034-1.354-.721-27.261-23.029-49.143-50.464-49.143z"/>
  </g>
  <path d="M289.202 193.186a23.086 23.086 0 00-21.911-15.813H123.929a36.125 36.125 0 00-34.277 24.719l-18.627 55.977c-2.97 8.926 3.674 18.14 13.082 18.14H301.4c7.561 0 12.903-7.402 10.521-14.578l-22.719-68.445z" fill="#eceff0"/>
  <path d="M67.586 313.869v-.54c0-14.163-11.481-25.644-25.644-25.644H27.727v51.827h14.215c14.163 0 25.644-11.481 25.644-25.643z" fill="#ec6575"/>
  <g fill="#5dade0">
    <path d="M29.116 367.505c-.469 0-.928.037-1.389.07-9.906.714-17.727 8.957-17.727 19.046v17.996c0 10.557 8.558 19.115 19.116 19.115h27.673v-56.227H29.116zM260.612 118.253a18.755 18.755 0 00-18.33-14.784h-80.565a18.755 18.755 0 00-18.33 14.784L137 147.741h130l-6.388-29.488z"/>
  </g>
  <path d="M451.317 309.768h44.014l-.004-.011a68.722 68.722 0 00-4.243-10.128 69.718 69.718 0 00-1.168-2.174l-.07-.122a68.929 68.929 0 00-4.194-6.536c-.039-.054-.076-.109-.115-.162a70.148 70.148 0 00-1.384-1.829c-.129-.165-.258-.33-.388-.493a69.04 69.04 0 00-1.396-1.704c-.127-.15-.257-.296-.385-.445a69.412 69.412 0 00-4.811-5.042c-.182-.173-.361-.349-.546-.52a69.86 69.86 0 00-1.433-1.286 71.69 71.69 0 00-2.214-1.868c-.301-.243-.607-.479-.912-.717-.47-.367-.939-.735-1.419-1.089-.321-.237-.65-.462-.975-.693a70.523 70.523 0 00-2.494-1.696c-.414-.268-.825-.538-1.245-.798a66.458 66.458 0 00-1.309-.782 68.011 68.011 0 00-2.63-1.475 66.249 66.249 0 00-1.502-.769c-.398-.199-.794-.402-1.196-.594a69.922 69.922 0 00-2.492-1.127c-.318-.136-.64-.262-.96-.393a69.42 69.42 0 00-2.061-.813c-.378-.141-.76-.272-1.141-.407a70.138 70.138 0 00-3.002-.986 68.46 68.46 0 00-1.972-.56c-.346-.093-.69-.191-1.038-.279a68.355 68.355 0 00-3.015-.696c-.112-.023-.227-.04-.34-.063a68.678 68.678 0 00-2.78-.496c-.344-.054-.692-.099-1.038-.149a69.987 69.987 0 00-3.304-.391 71.184 71.184 0 00-2.232-.17c-.339-.021-.678-.046-1.019-.062a70.328 70.328 0 00-3.256-.082H421v17.291c0 16.743 13.573 30.316 30.317 30.316z" fill="#ec6575"/>
  <path d="M508.761 331.276a78.784 78.784 0 00-3.876-24.424c-.02-.064-.03-.13-.051-.194-.157-.48-.333-.951-.499-1.427-.161-.463-.316-.93-.485-1.388a78.885 78.885 0 00-54.425-49.178l-.05-.013a78.884 78.884 0 00-7.544-1.55c-.206-.032-.414-.057-.62-.087a80.76 80.76 0 00-4.088-.49 81.108 81.108 0 00-2.669-.204c-.366-.022-.731-.049-1.098-.066a80.152 80.152 0 00-3.71-.094h-67.959a4.894 4.894 0 01-4.582-3.203l-29.536-80.727c-6.673-18.237-24.204-30.491-43.624-30.491h-8.878l-4.68-21.605c-2.846-13.134-14.665-22.667-28.104-22.667h-80.564c-13.438 0-25.258 9.533-28.104 22.667l-4.68 21.605h-9.443c-32.142 0-60.604 19.292-72.51 49.147l-18.473 46.32a150.838 150.838 0 00-10.757 53.974c-.008.168-.025.333-.025.503V359.825C7.316 364.269 0 374.606 0 386.621v17.996c0 16.055 13.061 29.116 29.115 29.116h27.674c5.522 0 10-4.477 10-10v-11.055H78.83c4.209 29.276 29.448 51.852 59.87 51.852s55.661-22.576 59.87-51.852h115.238c4.209 29.276 29.448 51.852 59.87 51.852s55.661-22.576 59.87-51.852h10.093c1.307 8.444 8.604 14.936 17.409 14.936h18.096c18.116 0 32.854-14.738 32.854-32.854v-12.957c0-5.09-1.164-9.914-3.239-14.219v-36.308zM431 272.196c.498.011.997.014 1.492.038.086.004.172.005.257.01a59.63 59.63 0 012.691.205l.477.048a59.41 59.41 0 015.632.868c15.987 3.281 29.628 13.045 38.079 26.404h-28.311c-11.202 0-20.316-9.114-20.316-20.317l-.001-7.256zM153.161 120.37c.866-3.999 4.465-6.901 8.557-6.901h80.564c4.092 0 7.69 2.902 8.557 6.901l3.763 17.371H149.398l3.763-17.371zM37.727 297.685h4.216c8.626 0 15.644 7.018 15.644 15.644v.54c0 8.626-7.018 15.644-15.644 15.644h-4.216v-31.828zm9.062 94.992v21.055H29.115a9.075 9.075 0 01-5.804-2.092A9.1 9.1 0 0120 404.617v-17.996c0-5.026 4.089-9.115 9.115-9.115h17.674v15.171zm131.47 20c-3.972 18.189-20.196 31.852-39.559 31.852-19.364 0-35.587-13.663-39.56-31.852a40.46 40.46 0 01-.938-8.646c0-3.942.577-7.749 1.632-11.354 4.922-16.819 20.477-29.144 38.866-29.144 18.388 0 33.943 12.324 38.865 29.144a40.36 40.36 0 011.632 11.354c0 2.968-.33 5.859-.938 8.646zm234.978 0c-3.972 18.189-20.196 31.852-39.56 31.852s-35.587-13.663-39.56-31.852a40.46 40.46 0 01-.938-8.646c0-3.942.577-7.749 1.632-11.354 4.922-16.819 20.477-29.144 38.866-29.144s33.944 12.324 38.866 29.144a40.36 40.36 0 011.632 11.354 40.39 40.39 0 01-.938 8.646zm30.175-46.092v26.092h-10.32c-5.331-27.948-29.937-49.144-59.414-49.144s-54.083 21.196-59.414 49.144h-116.15c-5.331-27.948-29.936-49.144-59.413-49.144s-54.083 21.196-59.414 49.144H66.789v-25.172c0-5.523-4.478-10-10-10H37.727v-7.993h4.216c19.654 0 35.644-15.99 35.644-35.644v-.54c0-19.654-15.989-35.644-35.644-35.644h-3.696a130.867 130.867 0 018.84-37.068l18.473-46.32c8.855-22.207 30.025-36.555 53.933-36.555h164.451c11.059 0 21.041 6.978 24.841 17.363l29.537 80.727c3.574 9.768 12.964 16.33 23.364 16.33H411v7.291c0 22.231 18.086 40.317 40.316 40.317h36.311a59.138 59.138 0 011.133 11.507v19.11a32.749 32.749 0 00-9.615-1.439H461.05c-9.726.001-17.638 7.913-17.638 17.638zM492 394.759c0 7.088-5.767 12.854-12.854 12.854h-15.733v-38.665h15.733c3.827 0 7.258 1.69 9.615 4.352a12.785 12.785 0 013.239 8.502v12.957z" fill="#000"/>
  <path d="M298.693 190.036a33.039 33.039 0 00-31.402-22.663H123.93a46.064 46.064 0 00-43.766 31.562l-18.627 55.978a23.842 23.842 0 003.276 21.423 23.844 23.844 0 0019.293 9.874H95c5.522 0 10-4.477 10-10s-4.478-10-10-10H84.106c-1.687 0-2.648-.985-3.071-1.572s-1.054-1.811-.521-3.411l18.627-55.978a26.092 26.092 0 0124.789-17.876H185v78.836h-10c-5.522 0-10 4.477-10 10s4.478 10 10 10h126.399a21.14 21.14 0 0017.098-8.746 21.139 21.139 0 002.915-18.982l-22.719-68.445zm3.587 75.722c-.325.451-.743.451-.881.451H205v-78.836h62.291a13.066 13.066 0 0112.42 8.964l22.719 68.445c.044.13.174.527-.15.976zM298 352.802h-82c-5.522 0-10 4.477-10 10s4.478 10 10 10h82c5.522 0 10-4.477 10-10s-4.478-10-10-10zM147.93 400.205c-.25-.6-.56-1.18-.92-1.72a9.57 9.57 0 00-1.24-1.52 9.87 9.87 0 00-3.25-2.17c-.6-.25-1.229-.44-1.87-.57a9.842 9.842 0 00-3.899 0c-.641.13-1.271.32-1.88.57-.601.25-1.181.56-1.721.92-.55.37-1.06.78-1.52 1.25-.46.46-.88.97-1.24 1.52-.37.54-.67 1.12-.92 1.72s-.45 1.23-.58 1.87c-.13.65-.189 1.3-.189 1.96 0 .65.06 1.31.189 1.95.13.64.33 1.27.58 1.87s.55 1.19.92 1.73c.36.55.78 1.06 1.24 1.52s.97.88 1.52 1.24c.179.119.368.224.555.332.377.218.764.421 1.166.588.609.25 1.239.44 1.88.57.64.13 1.3.2 1.95.2.649 0 1.31-.07 1.949-.2a9.759 9.759 0 003.045-1.158c.187-.108.377-.213.556-.332.55-.36 1.06-.78 1.52-1.24s.88-.97 1.24-1.52c.36-.54.67-1.13.92-1.73s.45-1.23.57-1.87c.13-.64.2-1.3.2-1.95 0-.66-.07-1.31-.2-1.96a9.46 9.46 0 00-.571-1.87zM118.516 67.69c-4.483-3.231-10.731-2.215-13.96 2.264-3.23 4.48-2.217 10.73 2.263 13.96l14.333 10.333a9.96 9.96 0 005.84 1.889 9.987 9.987 0 008.12-4.153c3.23-4.48 2.217-10.73-2.263-13.96L118.516 67.69zM286.5 67.69l-14.333 10.333c-4.479 3.23-5.493 9.48-2.263 13.96a9.987 9.987 0 008.12 4.153c2.025 0 4.07-.614 5.84-1.889l14.333-10.333c4.479-3.23 5.493-9.48 2.263-13.96-3.228-4.479-9.478-5.494-13.96-2.264zM192 57.469v14.333c0 5.523 4.478 10 10 10s10-4.477 10-10V57.469c0-5.523-4.478-10-10-10s-10 4.477-10 10zM382.91 400.205c-.25-.6-.561-1.18-.92-1.72-.36-.55-.78-1.06-1.24-1.53-2.32-2.32-5.78-3.38-9.03-2.73-.63.13-1.26.32-1.87.57a10.146 10.146 0 00-3.241 2.16c-.46.47-.88.98-1.25 1.53-.359.54-.67 1.12-.92 1.72-.25.61-.439 1.24-.569 1.87-.13.65-.19 1.31-.19 1.96a9.915 9.915 0 00.759 3.82c.25.61.561 1.19.92 1.73.37.55.79 1.06 1.25 1.52s.971.88 1.521 1.24c.179.119.368.224.555.332.377.218.764.421 1.165.588.61.25 1.24.44 1.87.57.65.13 1.311.2 1.96.2 1.756 0 3.485-.487 4.998-1.358a9.956 9.956 0 002.073-1.572c.46-.46.88-.97 1.24-1.52a10.096 10.096 0 001.489-3.6c.13-.64.2-1.3.2-1.95s-.07-1.31-.2-1.96c-.13-.63-.32-1.26-.57-1.87z" fill="#000"/>
  <path d="M144.229 272.385c-.25-.6-.56-1.19-.92-1.73a9.92 9.92 0 00-1.24-1.52 9.57 9.57 0 00-1.52-1.24 9.87 9.87 0 00-1.73-.92c-.6-.25-1.229-.44-1.869-.57a9.847 9.847 0 00-3.9 0c-.64.13-1.27.32-1.88.57-.601.25-1.18.56-1.72.92-.551.36-1.061.78-1.521 1.24s-.88.98-1.25 1.52c-.36.54-.66 1.13-.91 1.73s-.45 1.23-.58 1.87c-.13.65-.189 1.3-.189 1.95 0 2.64 1.069 5.21 2.93 7.07.46.47.97.88 1.521 1.25.54.36 1.119.67 1.72.92.61.25 1.24.44 1.88.57s1.3.19 1.95.19a9.847 9.847 0 003.819-.76 9.87 9.87 0 003.25-2.17 10.059 10.059 0 002.931-7.07c0-.65-.07-1.3-.2-1.95a9.463 9.463 0 00-.572-1.87z" fill="#000"/>
</svg>
